<?xml version="1.0" encoding="UTF-8" standalone="no"?>
<svg
   version="1.1"
   viewBox="0.00 0.00 1039.00 649.00"
   id="svg33"
   sodipodi:docname="LogoHortiEscola.svg"
   inkscape:version="1.3.1 (91b66b0783, 2023-11-16)"
   xmlns:inkscape="http://www.inkscape.org/namespaces/inkscape"
   xmlns:sodipodi="http://sodipodi.sourceforge.net/DTD/sodipodi-0.dtd"
   xmlns="http://www.w3.org/2000/svg"
   xmlns:svg="http://www.w3.org/2000/svg">
  <defs
     id="defs33" />
  <sodipodi:namedview
     id="namedview33"
     pagecolor="#ffffff"
     bordercolor="#000000"
     borderopacity="0.25"
     inkscape:showpageshadow="2"
     inkscape:pageopacity="0.0"
     inkscape:pagecheckerboard="0"
     inkscape:deskcolor="#d1d1d1"
     inkscape:zoom="0.62634823"
     inkscape:cx="536.4428"
     inkscape:cy="318.51291"
     inkscape:window-width="1920"
     inkscape:window-height="1009"
     inkscape:window-x="-8"
     inkscape:window-y="-8"
     inkscape:window-maximized="1"
     inkscape:current-layer="svg33" />
  <g
     stroke-width="2.00"
     fill="none"
     stroke-linecap="butt"
     id="g18">
    <path
       stroke="#b4c084"
       vector-effect="non-scaling-stroke"
       d="   M 509.57 379.38   A 0.20 0.20 0.0 0 1 509.36 379.18   L 509.37 302.59   A 0.31 0.31 0.0 0 1 509.66 302.28   Q 516.22 301.88 522.79 301.61   Q 529.11 301.35 535.84 300.06   C 553.27 296.73 571.89 289.83 586.35 279.69   C 616.87 258.29 628.90 222.77 623.70 186.11   Q 622.99 181.05 621.30 177.49   Q 619.73 174.16 615.70 174.04   C 606.54 173.77 596.54 174.87 587.23 176.10   Q 570.66 178.30 554.47 185.51   C 521.85 200.06 502.34 228.44 497.46 263.30   Q 496.45 270.54 496.50 281.75   Q 496.76 338.89 496.60 385.87   C 496.58 390.11 499.79 392.04 503.82 392.07   Q 514.80 392.13 525.14 390.77   Q 538.48 389.02 546.26 387.21   Q 604.35 373.76 644.39 330.26   C 679.24 292.40 696.86 242.68 693.42 191.21   C 689.06 125.86 651.49 69.01 594.10 37.97   Q 586.91 34.09 576.99 29.86   Q 566.48 25.39 558.55 23.08   Q 510.91 9.23 463.59 19.08   Q 400.38 32.24 357.27 81.69   C 335.74 106.39 321.12 137.52 315.34 168.76   C 305.00 224.56 319.99 282.03 356.88 324.86   Q 390.73 364.16 438.98 381.19   Q 460.54 388.80 482.59 390.95   A 0.30 0.30 0.0 0 0 482.92 390.68   L 484.18 379.21   Q 484.25 378.61 483.65 378.54   Q 429.88 372.47 388.27 338.37   Q 380.63 332.10 373.58 324.62   Q 338.15 287.02 328.31 238.15   C 319.99 196.77 326.61 152.85 348.46 115.95   C 372.92 74.64 412.18 44.68 458.94 33.22   Q 505.97 21.69 552.27 34.57   Q 596.71 46.94 629.83 80.08   C 653.84 104.09 670.99 135.04 677.57 168.43   C 686.36 212.97 678.75 257.95 654.57 296.21   Q 629.59 335.74 587.47 358.54   Q 572.82 366.47 558.07 370.97   Q 543.65 375.37 532.75 377.10   Q 521.61 378.86 509.57 379.38"
       id="path1" />
    <path
       stroke="#b4c084"
       vector-effect="non-scaling-stroke"
       d="   M 397.91 186.57   C 418.49 187.21 439.05 191.17 457.06 200.72   Q 470.89 208.05 479.73 218.54   C 482.74 222.12 486.01 226.55 491.23 223.34   C 493.68 221.83 494.33 218.74 495.44 216.26   Q 498.11 210.29 501.94 205.29   C 511.11 193.30 523.02 183.58 532.84 172.49   Q 548.54 154.74 550.66 131.06   Q 552.95 105.56 537.39 84.53   Q 525.77 68.81 509.33 59.26   C 505.31 56.93 501.10 59.73 497.65 61.91   C 482.40 71.56 468.64 84.81 462.49 102.16   C 451.94 131.91 466.44 160.31 485.84 182.64   A 0.42 0.41 49.5 0 0 486.42 182.69   L 495.34 175.12   Q 495.82 174.71 495.40 174.25   C 475.18 151.59 461.42 120.35 481.63 93.29   Q 491.06 80.65 505.23 72.30   Q 505.70 72.02 506.16 72.34   C 524.06 84.53 538.30 102.55 538.24 124.22   Q 538.18 148.57 521.80 166.04   Q 513.77 174.60 505.45 182.37   C 502.32 185.30 499.40 188.62 496.49 191.80   Q 490.43 198.41 486.46 206.07   Q 486.08 206.80 485.50 206.23   Q 472.39 193.54 456.02 186.30   C 436.05 177.47 414.74 174.11 392.63 174.03   C 389.00 174.01 386.47 176.76 385.71 180.20   C 381.32 200.06 382.80 222.11 390.78 241.30   Q 400.09 263.69 420.54 278.80   Q 427.84 284.20 437.82 288.93   Q 458.99 298.97 484.08 301.73   Q 484.62 301.79 484.62 301.24   L 484.63 289.78   Q 484.63 289.21 484.06 289.13   C 479.15 288.41 474.29 287.77 469.51 286.59   C 453.69 282.67 439.01 277.11 426.29 267.30   Q 403.92 250.05 397.94 221.43   Q 394.43 204.65 397.22 187.14   Q 397.32 186.55 397.91 186.57"
       id="path2" />
    <path
       stroke="#b4c084"
       vector-effect="non-scaling-stroke"
       d="   M 425.04 485.65   A 11.69 11.69 0.0 0 0 413.35 473.96   A 11.69 11.69 0.0 0 0 401.66 485.65   A 11.69 11.69 0.0 0 0 413.35 497.34   A 11.69 11.69 0.0 0 0 425.04 485.65"
       id="path3" />
    <path
       stroke="#b4c084"
       vector-effect="non-scaling-stroke"
       d="   M 825.00 479.09   A 0.33 0.33 0.0 0 0 824.67 478.76   L 806.83 478.76   A 0.33 0.33 0.0 0 0 806.50 479.09   L 806.50 597.17   A 0.33 0.33 0.0 0 0 806.83 597.50   L 824.67 597.50   A 0.33 0.33 0.0 0 0 825.00 597.17   L 825.00 479.09"
       id="path4" />
    <path
       stroke="#b4c084"
       vector-effect="non-scaling-stroke"
       d="   M 463.57 533.50   A 0.32 0.32 0.0 0 1 463.25 533.18   L 463.25 501.07   A 0.32 0.32 0.0 0 1 463.57 500.75   L 506.18 500.75   A 0.32 0.32 0.0 0 0 506.50 500.43   L 506.50 486.07   A 0.32 0.32 0.0 0 0 506.18 485.75   L 445.07 485.75   A 0.32 0.32 0.0 0 0 444.75 486.07   L 444.75 597.19   A 0.32 0.32 0.0 0 0 445.07 597.51   L 506.17 597.51   A 0.32 0.32 0.0 0 0 506.49 597.19   L 506.51 582.82   A 0.32 0.32 0.0 0 0 506.19 582.50   L 463.57 582.50   A 0.32 0.32 0.0 0 1 463.25 582.18   L 463.25 548.57   A 0.32 0.32 0.0 0 1 463.57 548.25   L 501.18 548.25   A 0.32 0.32 0.0 0 0 501.50 547.93   L 501.50 533.82   A 0.32 0.32 0.0 0 0 501.18 533.50   L 463.57 533.50"
       id="path5" />
    <path
       stroke="#b4c084"
       vector-effect="non-scaling-stroke"
       d="   M 144.75 533.35   A 0.40 0.40 0.0 0 1 144.35 533.75   L 92.65 533.75   A 0.40 0.40 0.0 0 1 92.25 533.35   L 92.25 486.39   A 0.40 0.40 0.0 0 0 91.85 485.99   L 74.41 486.02   A 0.40 0.40 0.0 0 0 74.01 486.42   L 74.00 597.10   A 0.40 0.40 0.0 0 0 74.40 597.50   L 91.85 597.50   A 0.40 0.40 0.0 0 0 92.25 597.10   L 92.25 549.15   A 0.40 0.40 0.0 0 1 92.65 548.75   L 144.35 548.75   A 0.40 0.40 0.0 0 1 144.75 549.15   L 144.75 597.10   A 0.40 0.40 0.0 0 0 145.15 597.50   L 162.60 597.50   A 0.40 0.40 0.0 0 0 163.00 597.10   L 163.00 486.41   A 0.40 0.40 0.0 0 0 162.60 486.01   L 145.15 486.00   A 0.40 0.40 0.0 0 0 144.75 486.40   L 144.75 533.35"
       id="path6" />
    <path
       stroke="#b4c084"
       vector-effect="non-scaling-stroke"
       d="   M 368.19 524.00   L 388.26 524.00   Q 389.01 524.00 389.01 523.24   L 389.01 509.63   Q 389.01 509.00 388.38 509.00   L 368.00 509.00   A 0.50 0.50 0.0 0 1 367.50 508.50   L 367.50 487.25   A 0.25 0.25 0.0 0 0 367.25 487.00   L 349.50 486.99   Q 349.00 486.99 349.00 487.50   L 349.00 508.25   Q 349.00 509.00 348.25 509.00   L 339.00 509.00   Q 338.50 509.00 338.50 509.50   L 338.50 523.50   A 0.50 0.50 0.0 0 0 339.00 524.00   L 348.45 524.00   A 0.56 0.56 0.0 0 1 349.01 524.57   Q 348.95 550.37 349.04 574.55   C 349.10 588.73 357.50 596.63 371.29 597.28   Q 379.31 597.66 388.36 597.46   Q 389.00 597.45 389.00 596.81   L 389.00 582.78   Q 389.00 582.26 388.47 582.28   Q 382.71 582.44 376.03 582.11   C 371.05 581.86 367.52 579.49 367.51 574.19   Q 367.49 546.72 367.50 524.69   Q 367.50 524.00 368.19 524.00"
       id="path7" />
    <path
       stroke="#b4c084"
       vector-effect="non-scaling-stroke"
       d="   M 229.25 507.90   C 207.39 505.63 186.30 518.19 181.04 540.50   C 174.14 569.76 191.13 598.40 222.88 598.71   Q 236.54 598.85 246.32 593.40   Q 268.96 580.80 269.51 553.61   Q 269.74 542.84 266.03 534.30   Q 255.77 510.66 229.25 507.90"
       id="path8" />
    <path
       stroke="#b4c084"
       vector-effect="non-scaling-stroke"
       d="   M 304.51 520.71   L 304.50 509.50   A 0.50 0.50 0.0 0 0 304.00 509.00   L 286.50 509.00   A 0.51 0.50 -0.0 0 0 285.99 509.50   L 286.00 596.75   Q 286.00 597.51 286.75 597.51   L 304.21 597.49   A 0.26 0.26 0.0 0 0 304.47 597.23   Q 304.45 572.90 304.52 549.11   C 304.55 539.85 307.05 531.00 316.99 527.92   Q 322.41 526.24 330.14 526.55   Q 330.75 526.58 330.75 525.97   L 330.75 508.28   Q 330.75 507.73 330.20 507.72   C 320.10 507.62 310.45 512.23 305.07 520.87   Q 304.51 521.77 304.51 520.71"
       id="path9" />
    <path
       stroke="#b4c084"
       vector-effect="non-scaling-stroke"
       d="   M 570.46 509.24   C 551.66 503.88 521.00 511.44 524.21 536.87   C 525.70 548.66 535.89 554.40 546.47 557.51   Q 555.19 560.07 562.96 562.52   C 567.12 563.83 573.05 565.60 574.67 570.03   C 576.46 574.95 573.50 579.57 568.93 581.59   Q 563.35 584.04 556.44 583.28   C 549.37 582.49 542.26 578.22 541.52 570.75   Q 541.47 570.25 540.96 570.25   L 522.78 570.25   A 0.27 0.26 88.0 0 0 522.52 570.54   C 523.07 581.93 531.05 591.14 541.36 595.32   Q 556.20 601.34 572.45 597.11   C 584.68 593.92 593.92 584.20 593.07 571.05   C 591.84 551.91 570.61 548.84 555.67 544.18   C 549.78 542.35 541.37 539.47 542.52 531.52   C 543.16 527.08 547.26 524.43 551.38 523.62   C 561.20 521.69 571.79 524.04 573.72 535.36   Q 573.83 536.00 574.48 536.00   L 591.32 536.00   Q 592.05 536.00 591.99 535.27   C 590.97 521.88 582.99 512.82 570.46 509.24"
       id="path10" />
    <path
       stroke="#b4c084"
       vector-effect="non-scaling-stroke"
       d="   M 606.25 542.31   C 602.34 564.63 609.95 586.97 631.78 595.83   C 637.61 598.19 645.44 599.19 651.70 598.76   Q 679.75 596.86 689.01 570.49   Q 689.35 569.50 688.31 569.50   L 670.01 569.50   Q 669.48 569.50 669.29 569.99   Q 664.76 581.57 652.53 583.14   C 628.28 586.25 621.19 562.88 624.84 543.80   C 627.18 531.55 635.58 523.03 648.32 523.03   Q 663.69 523.03 669.23 536.32   A 1.11 1.10 -11.1 0 0 670.25 537.00   L 688.75 537.00   A 0.34 0.33 82.1 0 0 689.07 536.57   C 684.62 519.89 672.19 509.85 655.47 508.03   C 639.38 506.28 623.92 510.69 614.15 523.94   Q 608.01 532.28 606.25 542.31"
       id="path11" />
    <path
       stroke="#b4c084"
       vector-effect="non-scaling-stroke"
       d="   M 716.47 517.02   C 703.79 526.80 699.01 542.48 700.24 558.21   C 701.97 580.43 718.23 597.30 740.66 598.63   C 760.16 599.79 777.44 591.09 785.87 573.25   C 790.43 563.62 791.15 550.84 788.57 540.62   C 783.11 519.06 764.91 506.90 742.71 507.74   Q 727.77 508.31 716.47 517.02"
       id="path12" />
    <path
       stroke="#b4c084"
       vector-effect="non-scaling-stroke"
       d="   M 912.94 521.15   C 906.32 513.00 896.31 508.31 885.97 507.74   C 862.69 506.46 844.77 522.35 841.79 545.15   C 839.63 561.79 844.41 579.72 858.13 590.39   C 874.62 603.22 899.20 601.43 912.92 585.02   Q 913.50 584.33 913.50 585.24   L 913.50 597.00   Q 913.50 597.50 914.00 597.50   L 931.75 597.50   A 0.25 0.25 0.0 0 0 932.00 597.25   L 932.00 509.25   Q 932.00 509.00 931.75 509.00   L 914.00 509.00   Q 913.50 509.00 913.50 509.50   L 913.50 520.96   Q 913.50 521.84 912.94 521.15"
       id="path13" />
    <path
       stroke="#b4c084"
       vector-effect="non-scaling-stroke"
       d="   M 422.49 509.52   A 0.52 0.52 0.0 0 0 421.97 509.00   L 404.51 509.00   A 0.52 0.52 0.0 0 0 403.99 509.52   L 403.99 596.98   A 0.52 0.52 0.0 0 0 404.51 597.50   L 421.97 597.50   A 0.52 0.52 0.0 0 0 422.49 596.98   L 422.49 509.52"
       id="path14" />
    <path
       stroke="#b4c084"
       vector-effect="non-scaling-stroke"
       d="   M 591.16 258.83   C 609.35 239.77 615.02 213.00 611.03 187.14   Q 610.94 186.53 610.33 186.55   Q 593.04 186.96 576.97 190.85   Q 570.40 192.44 562.19 195.84   Q 528.35 209.86 515.69 243.29   Q 510.03 258.24 509.36 273.70   Q 509.07 280.69 509.47 288.92   Q 509.51 289.56 510.15 289.51   Q 515.27 289.17 521.85 289.05   Q 527.76 288.94 533.58 287.73   C 554.88 283.31 576.16 274.56 591.16 258.83"
       id="path15" />
    <path
       stroke="#b4c084"
       vector-effect="non-scaling-stroke"
       d="   M 234.68 580.65   C 247.75 574.86 252.07 561.53 250.49 547.80   C 249.16 536.19 241.77 526.74 230.15 524.17   Q 221.38 522.23 213.37 525.80   C 200.58 531.50 197.10 545.12 198.39 558.34   C 199.52 570.01 206.23 579.80 217.88 582.32   Q 226.64 584.21 234.68 580.65"
       id="path16" />
    <path
       stroke="#b4c084"
       vector-effect="non-scaling-stroke"
       d="   M 737.96 582.24   Q 744.11 583.63 749.50 582.43   C 766.80 578.58 773.18 563.20 770.82 546.75   C 769.23 535.75 762.10 526.91 751.22 524.29   C 736.71 520.80 723.35 528.76 719.74 543.40   C 716.06 558.30 720.41 578.26 737.96 582.24"
       id="path17" />
    <path
       stroke="#b4c084"
       vector-effect="non-scaling-stroke"
       d="   M 887.3440 583.0645   A 29.90 26.97 88.9 0 0 913.7350 552.6522   A 29.90 26.97 88.9 0 0 886.1960 523.2755   A 29.90 26.97 88.9 0 0 859.8050 553.6878   A 29.90 26.97 88.9 0 0 887.3440 583.0645"
       id="path18" />
  </g>
  <path
     fill="#7f9a24"
     d="   M 0.00 0.00   L 1039.00 0.00   L 1039.00 649.00   L 0.00 649.00   L 0.00 0.00   Z   M 509.57 379.38   A 0.20 0.20 0.0 0 1 509.36 379.18   L 509.37 302.59   A 0.31 0.31 0.0 0 1 509.66 302.28   Q 516.22 301.88 522.79 301.61   Q 529.11 301.35 535.84 300.06   C 553.27 296.73 571.89 289.83 586.35 279.69   C 616.87 258.29 628.90 222.77 623.70 186.11   Q 622.99 181.05 621.30 177.49   Q 619.73 174.16 615.70 174.04   C 606.54 173.77 596.54 174.87 587.23 176.10   Q 570.66 178.30 554.47 185.51   C 521.85 200.06 502.34 228.44 497.46 263.30   Q 496.45 270.54 496.50 281.75   Q 496.76 338.89 496.60 385.87   C 496.58 390.11 499.79 392.04 503.82 392.07   Q 514.80 392.13 525.14 390.77   Q 538.48 389.02 546.26 387.21   Q 604.35 373.76 644.39 330.26   C 679.24 292.40 696.86 242.68 693.42 191.21   C 689.06 125.86 651.49 69.01 594.10 37.97   Q 586.91 34.09 576.99 29.86   Q 566.48 25.39 558.55 23.08   Q 510.91 9.23 463.59 19.08   Q 400.38 32.24 357.27 81.69   C 335.74 106.39 321.12 137.52 315.34 168.76   C 305.00 224.56 319.99 282.03 356.88 324.86   Q 390.73 364.16 438.98 381.19   Q 460.54 388.80 482.59 390.95   A 0.30 0.30 0.0 0 0 482.92 390.68   L 484.18 379.21   Q 484.25 378.61 483.65 378.54   Q 429.88 372.47 388.27 338.37   Q 380.63 332.10 373.58 324.62   Q 338.15 287.02 328.31 238.15   C 319.99 196.77 326.61 152.85 348.46 115.95   C 372.92 74.64 412.18 44.68 458.94 33.22   Q 505.97 21.69 552.27 34.57   Q 596.71 46.94 629.83 80.08   C 653.84 104.09 670.99 135.04 677.57 168.43   C 686.36 212.97 678.75 257.95 654.57 296.21   Q 629.59 335.74 587.47 358.54   Q 572.82 366.47 558.07 370.97   Q 543.65 375.37 532.75 377.10   Q 521.61 378.86 509.57 379.38   Z   M 397.91 186.57   C 418.49 187.21 439.05 191.17 457.06 200.72   Q 470.89 208.05 479.73 218.54   C 482.74 222.12 486.01 226.55 491.23 223.34   C 493.68 221.83 494.33 218.74 495.44 216.26   Q 498.11 210.29 501.94 205.29   C 511.11 193.30 523.02 183.58 532.84 172.49   Q 548.54 154.74 550.66 131.06   Q 552.95 105.56 537.39 84.53   Q 525.77 68.81 509.33 59.26   C 505.31 56.93 501.10 59.73 497.65 61.91   C 482.40 71.56 468.64 84.81 462.49 102.16   C 451.94 131.91 466.44 160.31 485.84 182.64   A 0.42 0.41 49.5 0 0 486.42 182.69   L 495.34 175.12   Q 495.82 174.71 495.40 174.25   C 475.18 151.59 461.42 120.35 481.63 93.29   Q 491.06 80.65 505.23 72.30   Q 505.70 72.02 506.16 72.34   C 524.06 84.53 538.30 102.55 538.24 124.22   Q 538.18 148.57 521.80 166.04   Q 513.77 174.60 505.45 182.37   C 502.32 185.30 499.40 188.62 496.49 191.80   Q 490.43 198.41 486.46 206.07   Q 486.08 206.80 485.50 206.23   Q 472.39 193.54 456.02 186.30   C 436.05 177.47 414.74 174.11 392.63 174.03   C 389.00 174.01 386.47 176.76 385.71 180.20   C 381.32 200.06 382.80 222.11 390.78 241.30   Q 400.09 263.69 420.54 278.80   Q 427.84 284.20 437.82 288.93   Q 458.99 298.97 484.08 301.73   Q 484.62 301.79 484.62 301.24   L 484.63 289.78   Q 484.63 289.21 484.06 289.13   C 479.15 288.41 474.29 287.77 469.51 286.59   C 453.69 282.67 439.01 277.11 426.29 267.30   Q 403.92 250.05 397.94 221.43   Q 394.43 204.65 397.22 187.14   Q 397.32 186.55 397.91 186.57   Z   M 425.04 485.65   A 11.69 11.69 0.0 0 0 413.35 473.96   A 11.69 11.69 0.0 0 0 401.66 485.65   A 11.69 11.69 0.0 0 0 413.35 497.34   A 11.69 11.69 0.0 0 0 425.04 485.65   Z   M 825.00 479.09   A 0.33 0.33 0.0 0 0 824.67 478.76   L 806.83 478.76   A 0.33 0.33 0.0 0 0 806.50 479.09   L 806.50 597.17   A 0.33 0.33 0.0 0 0 806.83 597.50   L 824.67 597.50   A 0.33 0.33 0.0 0 0 825.00 597.17   L 825.00 479.09   Z   M 463.57 533.50   A 0.32 0.32 0.0 0 1 463.25 533.18   L 463.25 501.07   A 0.32 0.32 0.0 0 1 463.57 500.75   L 506.18 500.75   A 0.32 0.32 0.0 0 0 506.50 500.43   L 506.50 486.07   A 0.32 0.32 0.0 0 0 506.18 485.75   L 445.07 485.75   A 0.32 0.32 0.0 0 0 444.75 486.07   L 444.75 597.19   A 0.32 0.32 0.0 0 0 445.07 597.51   L 506.17 597.51   A 0.32 0.32 0.0 0 0 506.49 597.19   L 506.51 582.82   A 0.32 0.32 0.0 0 0 506.19 582.50   L 463.57 582.50   A 0.32 0.32 0.0 0 1 463.25 582.18   L 463.25 548.57   A 0.32 0.32 0.0 0 1 463.57 548.25   L 501.18 548.25   A 0.32 0.32 0.0 0 0 501.50 547.93   L 501.50 533.82   A 0.32 0.32 0.0 0 0 501.18 533.50   L 463.57 533.50   Z   M 144.75 533.35   A 0.40 0.40 0.0 0 1 144.35 533.75   L 92.65 533.75   A 0.40 0.40 0.0 0 1 92.25 533.35   L 92.25 486.39   A 0.40 0.40 0.0 0 0 91.85 485.99   L 74.41 486.02   A 0.40 0.40 0.0 0 0 74.01 486.42   L 74.00 597.10   A 0.40 0.40 0.0 0 0 74.40 597.50   L 91.85 597.50   A 0.40 0.40 0.0 0 0 92.25 597.10   L 92.25 549.15   A 0.40 0.40 0.0 0 1 92.65 548.75   L 144.35 548.75   A 0.40 0.40 0.0 0 1 144.75 549.15   L 144.75 597.10   A 0.40 0.40 0.0 0 0 145.15 597.50   L 162.60 597.50   A 0.40 0.40 0.0 0 0 163.00 597.10   L 163.00 486.41   A 0.40 0.40 0.0 0 0 162.60 486.01   L 145.15 486.00   A 0.40 0.40 0.0 0 0 144.75 486.40   L 144.75 533.35   Z   M 368.19 524.00   L 388.26 524.00   Q 389.01 524.00 389.01 523.24   L 389.01 509.63   Q 389.01 509.00 388.38 509.00   L 368.00 509.00   A 0.50 0.50 0.0 0 1 367.50 508.50   L 367.50 487.25   A 0.25 0.25 0.0 0 0 367.25 487.00   L 349.50 486.99   Q 349.00 486.99 349.00 487.50   L 349.00 508.25   Q 349.00 509.00 348.25 509.00   L 339.00 509.00   Q 338.50 509.00 338.50 509.50   L 338.50 523.50   A 0.50 0.50 0.0 0 0 339.00 524.00   L 348.45 524.00   A 0.56 0.56 0.0 0 1 349.01 524.57   Q 348.95 550.37 349.04 574.55   C 349.10 588.73 357.50 596.63 371.29 597.28   Q 379.31 597.66 388.36 597.46   Q 389.00 597.45 389.00 596.81   L 389.00 582.78   Q 389.00 582.26 388.47 582.28   Q 382.71 582.44 376.03 582.11   C 371.05 581.86 367.52 579.49 367.51 574.19   Q 367.49 546.72 367.50 524.69   Q 367.50 524.00 368.19 524.00   Z   M 229.25 507.90   C 207.39 505.63 186.30 518.19 181.04 540.50   C 174.14 569.76 191.13 598.40 222.88 598.71   Q 236.54 598.85 246.32 593.40   Q 268.96 580.80 269.51 553.61   Q 269.74 542.84 266.03 534.30   Q 255.77 510.66 229.25 507.90   Z   M 304.51 520.71   L 304.50 509.50   A 0.50 0.50 0.0 0 0 304.00 509.00   L 286.50 509.00   A 0.51 0.50 -0.0 0 0 285.99 509.50   L 286.00 596.75   Q 286.00 597.51 286.75 597.51   L 304.21 597.49   A 0.26 0.26 0.0 0 0 304.47 597.23   Q 304.45 572.90 304.52 549.11   C 304.55 539.85 307.05 531.00 316.99 527.92   Q 322.41 526.24 330.14 526.55   Q 330.75 526.58 330.75 525.97   L 330.75 508.28   Q 330.75 507.73 330.20 507.72   C 320.10 507.62 310.45 512.23 305.07 520.87   Q 304.51 521.77 304.51 520.71   Z   M 570.46 509.24   C 551.66 503.88 521.00 511.44 524.21 536.87   C 525.70 548.66 535.89 554.40 546.47 557.51   Q 555.19 560.07 562.96 562.52   C 567.12 563.83 573.05 565.60 574.67 570.03   C 576.46 574.95 573.50 579.57 568.93 581.59   Q 563.35 584.04 556.44 583.28   C 549.37 582.49 542.26 578.22 541.52 570.75   Q 541.47 570.25 540.96 570.25   L 522.78 570.25   A 0.27 0.26 88.0 0 0 522.52 570.54   C 523.07 581.93 531.05 591.14 541.36 595.32   Q 556.20 601.34 572.45 597.11   C 584.68 593.92 593.92 584.20 593.07 571.05   C 591.84 551.91 570.61 548.84 555.67 544.18   C 549.78 542.35 541.37 539.47 542.52 531.52   C 543.16 527.08 547.26 524.43 551.38 523.62   C 561.20 521.69 571.79 524.04 573.72 535.36   Q 573.83 536.00 574.48 536.00   L 591.32 536.00   Q 592.05 536.00 591.99 535.27   C 590.97 521.88 582.99 512.82 570.46 509.24   Z   M 606.25 542.31   C 602.34 564.63 609.95 586.97 631.78 595.83   C 637.61 598.19 645.44 599.19 651.70 598.76   Q 679.75 596.86 689.01 570.49   Q 689.35 569.50 688.31 569.50   L 670.01 569.50   Q 669.48 569.50 669.29 569.99   Q 664.76 581.57 652.53 583.14   C 628.28 586.25 621.19 562.88 624.84 543.80   C 627.18 531.55 635.58 523.03 648.32 523.03   Q 663.69 523.03 669.23 536.32   A 1.11 1.10 -11.1 0 0 670.25 537.00   L 688.75 537.00   A 0.34 0.33 82.1 0 0 689.07 536.57   C 684.62 519.89 672.19 509.85 655.47 508.03   C 639.38 506.28 623.92 510.69 614.15 523.94   Q 608.01 532.28 606.25 542.31   Z   M 716.47 517.02   C 703.79 526.80 699.01 542.48 700.24 558.21   C 701.97 580.43 718.23 597.30 740.66 598.63   C 760.16 599.79 777.44 591.09 785.87 573.25   C 790.43 563.62 791.15 550.84 788.57 540.62   C 783.11 519.06 764.91 506.90 742.71 507.74   Q 727.77 508.31 716.47 517.02   Z   M 912.94 521.15   C 906.32 513.00 896.31 508.31 885.97 507.74   C 862.69 506.46 844.77 522.35 841.79 545.15   C 839.63 561.79 844.41 579.72 858.13 590.39   C 874.62 603.22 899.20 601.43 912.92 585.02   Q 913.50 584.33 913.50 585.24   L 913.50 597.00   Q 913.50 597.50 914.00 597.50   L 931.75 597.50   A 0.25 0.25 0.0 0 0 932.00 597.25   L 932.00 509.25   Q 932.00 509.00 931.75 509.00   L 914.00 509.00   Q 913.50 509.00 913.50 509.50   L 913.50 520.96   Q 913.50 521.84 912.94 521.15   Z   M 422.49 509.52   A 0.52 0.52 0.0 0 0 421.97 509.00   L 404.51 509.00   A 0.52 0.52 0.0 0 0 403.99 509.52   L 403.99 596.98   A 0.52 0.52 0.0 0 0 404.51 597.50   L 421.97 597.50   A 0.52 0.52 0.0 0 0 422.49 596.98   L 422.49 509.52   Z"
     id="path19"
     style="fill:#7ba42c;fill-opacity:1" />
  <path
     fill="#e8e6e3"
     d="   M 509.57 379.38   Q 521.61 378.86 532.75 377.10   Q 543.65 375.37 558.07 370.97   Q 572.82 366.47 587.47 358.54   Q 629.59 335.74 654.57 296.21   C 678.75 257.95 686.36 212.97 677.57 168.43   C 670.99 135.04 653.84 104.09 629.83 80.08   Q 596.71 46.94 552.27 34.57   Q 505.97 21.69 458.94 33.22   C 412.18 44.68 372.92 74.64 348.46 115.95   C 326.61 152.85 319.99 196.77 328.31 238.15   Q 338.15 287.02 373.58 324.62   Q 380.63 332.10 388.27 338.37   Q 429.88 372.47 483.65 378.54   Q 484.25 378.61 484.18 379.21   L 482.92 390.68   A 0.30 0.30 0.0 0 1 482.59 390.95   Q 460.54 388.80 438.98 381.19   Q 390.73 364.16 356.88 324.86   C 319.99 282.03 305.00 224.56 315.34 168.76   C 321.12 137.52 335.74 106.39 357.27 81.69   Q 400.38 32.24 463.59 19.08   Q 510.91 9.23 558.55 23.08   Q 566.48 25.39 576.99 29.86   Q 586.91 34.09 594.10 37.97   C 651.49 69.01 689.06 125.86 693.42 191.21   C 696.86 242.68 679.24 292.40 644.39 330.26   Q 604.35 373.76 546.26 387.21   Q 538.48 389.02 525.14 390.77   Q 514.80 392.13 503.82 392.07   C 499.79 392.04 496.58 390.11 496.60 385.87   Q 496.76 338.89 496.50 281.75   Q 496.45 270.54 497.46 263.30   C 502.34 228.44 521.85 200.06 554.47 185.51   Q 570.66 178.30 587.23 176.10   C 596.54 174.87 606.54 173.77 615.70 174.04   Q 619.73 174.16 621.30 177.49   Q 622.99 181.05 623.70 186.11   C 628.90 222.77 616.87 258.29 586.35 279.69   C 571.89 289.83 553.27 296.73 535.84 300.06   Q 529.11 301.35 522.79 301.61   Q 516.22 301.88 509.66 302.28   A 0.31 0.31 0.0 0 0 509.37 302.59   L 509.36 379.18   A 0.20 0.20 0.0 0 0 509.57 379.38   Z   M 591.16 258.83   C 609.35 239.77 615.02 213.00 611.03 187.14   Q 610.94 186.53 610.33 186.55   Q 593.04 186.96 576.97 190.85   Q 570.40 192.44 562.19 195.84   Q 528.35 209.86 515.69 243.29   Q 510.03 258.24 509.36 273.70   Q 509.07 280.69 509.47 288.92   Q 509.51 289.56 510.15 289.51   Q 515.27 289.17 521.85 289.05   Q 527.76 288.94 533.58 287.73   C 554.88 283.31 576.16 274.56 591.16 258.83   Z"
     id="path20" />
  <path
     fill="#e8e6e3"
     d="   M 397.22 187.14   Q 394.43 204.65 397.94 221.43   Q 403.92 250.05 426.29 267.30   C 439.01 277.11 453.69 282.67 469.51 286.59   C 474.29 287.77 479.15 288.41 484.06 289.13   Q 484.63 289.21 484.63 289.78   L 484.62 301.24   Q 484.62 301.79 484.08 301.73   Q 458.99 298.97 437.82 288.93   Q 427.84 284.20 420.54 278.80   Q 400.09 263.69 390.78 241.30   C 382.80 222.11 381.32 200.06 385.71 180.20   C 386.47 176.76 389.00 174.01 392.63 174.03   C 414.74 174.11 436.05 177.47 456.02 186.30   Q 472.39 193.54 485.50 206.23   Q 486.08 206.80 486.46 206.07   Q 490.43 198.41 496.49 191.80   C 499.40 188.62 502.32 185.30 505.45 182.37   Q 513.77 174.60 521.80 166.04   Q 538.18 148.57 538.24 124.22   C 538.30 102.55 524.06 84.53 506.16 72.34   Q 505.70 72.02 505.23 72.30   Q 491.06 80.65 481.63 93.29   C 461.42 120.35 475.18 151.59 495.40 174.25   Q 495.82 174.71 495.34 175.12   L 486.42 182.69   A 0.42 0.41 49.5 0 1 485.84 182.64   C 466.44 160.31 451.94 131.91 462.49 102.16   C 468.64 84.81 482.40 71.56 497.65 61.91   C 501.10 59.73 505.31 56.93 509.33 59.26   Q 525.77 68.81 537.39 84.53   Q 552.95 105.56 550.66 131.06   Q 548.54 154.74 532.84 172.49   C 523.02 183.58 511.11 193.30 501.94 205.29   Q 498.11 210.29 495.44 216.26   C 494.33 218.74 493.68 221.83 491.23 223.34   C 486.01 226.55 482.74 222.12 479.73 218.54   Q 470.89 208.05 457.06 200.72   C 439.05 191.17 418.49 187.21 397.91 186.57   Q 397.32 186.55 397.22 187.14   Z"
     id="path21" />
  <path
     fill="#7f9a24"
     d="   M 611.03 187.14   C 615.02 213.00 609.35 239.77 591.16 258.83   C 576.16 274.56 554.88 283.31 533.58 287.73   Q 527.76 288.94 521.85 289.05   Q 515.27 289.17 510.15 289.51   Q 509.51 289.56 509.47 288.92   Q 509.07 280.69 509.36 273.70   Q 510.03 258.24 515.69 243.29   Q 528.35 209.86 562.19 195.84   Q 570.40 192.44 576.97 190.85   Q 593.04 186.96 610.33 186.55   Q 610.94 186.53 611.03 187.14   Z"
     id="path22"
     style="fill:#7ba42c;fill-opacity:1" />
  <circle
     fill="#e8e6e3"
     cx="413.35"
     cy="485.65"
     r="11.69"
     id="circle22" />
  <rect
     fill="#e8e6e3"
     x="806.50"
     y="478.76"
     width="18.50"
     height="118.74"
     rx="0.33"
     id="rect22" />
  <path
     fill="#e8e6e3"
     d="   M 463.57 533.50   L 501.18 533.50   A 0.32 0.32 0.0 0 1 501.50 533.82   L 501.50 547.93   A 0.32 0.32 0.0 0 1 501.18 548.25   L 463.57 548.25   A 0.32 0.32 0.0 0 0 463.25 548.57   L 463.25 582.18   A 0.32 0.32 0.0 0 0 463.57 582.50   L 506.19 582.50   A 0.32 0.32 0.0 0 1 506.51 582.82   L 506.49 597.19   A 0.32 0.32 0.0 0 1 506.17 597.51   L 445.07 597.51   A 0.32 0.32 0.0 0 1 444.75 597.19   L 444.75 486.07   A 0.32 0.32 0.0 0 1 445.07 485.75   L 506.18 485.75   A 0.32 0.32 0.0 0 1 506.50 486.07   L 506.50 500.43   A 0.32 0.32 0.0 0 1 506.18 500.75   L 463.57 500.75   A 0.32 0.32 0.0 0 0 463.25 501.07   L 463.25 533.18   A 0.32 0.32 0.0 0 0 463.57 533.50   Z"
     id="path23" />
  <path
     fill="#e8e6e3"
     d="   M 144.75 533.35   L 144.75 486.40   A 0.40 0.40 0.0 0 1 145.15 486.00   L 162.60 486.01   A 0.40 0.40 0.0 0 1 163.00 486.41   L 163.00 597.10   A 0.40 0.40 0.0 0 1 162.60 597.50   L 145.15 597.50   A 0.40 0.40 0.0 0 1 144.75 597.10   L 144.75 549.15   A 0.40 0.40 0.0 0 0 144.35 548.75   L 92.65 548.75   A 0.40 0.40 0.0 0 0 92.25 549.15   L 92.25 597.10   A 0.40 0.40 0.0 0 1 91.85 597.50   L 74.40 597.50   A 0.40 0.40 0.0 0 1 74.00 597.10   L 74.01 486.42   A 0.40 0.40 0.0 0 1 74.41 486.02   L 91.85 485.99   A 0.40 0.40 0.0 0 1 92.25 486.39   L 92.25 533.35   A 0.40 0.40 0.0 0 0 92.65 533.75   L 144.35 533.75   A 0.40 0.40 0.0 0 0 144.75 533.35   Z"
     id="path24" />
  <path
     fill="#e8e6e3"
     d="   M 367.50 524.69   Q 367.49 546.72 367.51 574.19   C 367.52 579.49 371.05 581.86 376.03 582.11   Q 382.71 582.44 388.47 582.28   Q 389.00 582.26 389.00 582.78   L 389.00 596.81   Q 389.00 597.45 388.36 597.46   Q 379.31 597.66 371.29 597.28   C 357.50 596.63 349.10 588.73 349.04 574.55   Q 348.95 550.37 349.01 524.57   A 0.56 0.56 0.0 0 0 348.45 524.00   L 339.00 524.00   A 0.50 0.50 0.0 0 1 338.50 523.50   L 338.50 509.50   Q 338.50 509.00 339.00 509.00   L 348.25 509.00   Q 349.00 509.00 349.00 508.25   L 349.00 487.50   Q 349.00 486.99 349.50 486.99   L 367.25 487.00   A 0.25 0.25 0.0 0 1 367.50 487.25   L 367.50 508.50   A 0.50 0.50 0.0 0 0 368.00 509.00   L 388.38 509.00   Q 389.01 509.00 389.01 509.63   L 389.01 523.24   Q 389.01 524.00 388.26 524.00   L 368.19 524.00   Q 367.50 524.00 367.50 524.69   Z"
     id="path25" />
  <path
     fill="#e8e6e3"
     d="   M 181.04 540.50   C 186.30 518.19 207.39 505.63 229.25 507.90   Q 255.77 510.66 266.03 534.30   Q 269.74 542.84 269.51 553.61   Q 268.96 580.80 246.32 593.40   Q 236.54 598.85 222.88 598.71   C 191.13 598.40 174.14 569.76 181.04 540.50   Z   M 234.68 580.65   C 247.75 574.86 252.07 561.53 250.49 547.80   C 249.16 536.19 241.77 526.74 230.15 524.17   Q 221.38 522.23 213.37 525.80   C 200.58 531.50 197.10 545.12 198.39 558.34   C 199.52 570.01 206.23 579.80 217.88 582.32   Q 226.64 584.21 234.68 580.65   Z"
     id="path26" />
  <path
     fill="#e8e6e3"
     d="   M 305.07 520.87   C 310.45 512.23 320.10 507.62 330.20 507.72   Q 330.75 507.73 330.75 508.28   L 330.75 525.97   Q 330.75 526.58 330.14 526.55   Q 322.41 526.24 316.99 527.92   C 307.05 531.00 304.55 539.85 304.52 549.11   Q 304.45 572.90 304.47 597.23   A 0.26 0.26 0.0 0 1 304.21 597.49   L 286.75 597.51   Q 286.00 597.51 286.00 596.75   L 285.99 509.50   A 0.51 0.50 -0.0 0 1 286.50 509.00   L 304.00 509.00   A 0.50 0.50 0.0 0 1 304.50 509.50   L 304.51 520.71   Q 304.51 521.77 305.07 520.87   Z"
     id="path27" />
  <path
     fill="#e8e6e3"
     d="   M 524.21 536.87   C 521.00 511.44 551.66 503.88 570.46 509.24   C 582.99 512.82 590.97 521.88 591.99 535.27   Q 592.05 536.00 591.32 536.00   L 574.48 536.00   Q 573.83 536.00 573.72 535.36   C 571.79 524.04 561.20 521.69 551.38 523.62   C 547.26 524.43 543.16 527.08 542.52 531.52   C 541.37 539.47 549.78 542.35 555.67 544.18   C 570.61 548.84 591.84 551.91 593.07 571.05   C 593.92 584.20 584.68 593.92 572.45 597.11   Q 556.20 601.34 541.36 595.32   C 531.05 591.14 523.07 581.93 522.52 570.54   A 0.27 0.26 88.0 0 1 522.78 570.25   L 540.96 570.25   Q 541.47 570.25 541.52 570.75   C 542.26 578.22 549.37 582.49 556.44 583.28   Q 563.35 584.04 568.93 581.59   C 573.50 579.57 576.46 574.95 574.67 570.03   C 573.05 565.60 567.12 563.83 562.96 562.52   Q 555.19 560.07 546.47 557.51   C 535.89 554.40 525.70 548.66 524.21 536.87   Z"
     id="path28" />
  <path
     fill="#e8e6e3"
     d="   M 614.15 523.94   C 623.92 510.69 639.38 506.28 655.47 508.03   C 672.19 509.85 684.62 519.89 689.07 536.57   A 0.34 0.33 82.1 0 1 688.75 537.00   L 670.25 537.00   A 1.11 1.10 -11.1 0 1 669.23 536.32   Q 663.69 523.03 648.32 523.03   C 635.58 523.03 627.18 531.55 624.84 543.80   C 621.19 562.88 628.28 586.25 652.53 583.14   Q 664.76 581.57 669.29 569.99   Q 669.48 569.50 670.01 569.50   L 688.31 569.50   Q 689.35 569.50 689.01 570.49   Q 679.75 596.86 651.70 598.76   C 645.44 599.19 637.61 598.19 631.78 595.83   C 609.95 586.97 602.34 564.63 606.25 542.31   Q 608.01 532.28 614.15 523.94   Z"
     id="path29" />
  <path
     fill="#e8e6e3"
     d="   M 700.24 558.21   C 699.01 542.48 703.79 526.80 716.47 517.02   Q 727.77 508.31 742.71 507.74   C 764.91 506.90 783.11 519.06 788.57 540.62   C 791.15 550.84 790.43 563.62 785.87 573.25   C 777.44 591.09 760.16 599.79 740.66 598.63   C 718.23 597.30 701.97 580.43 700.24 558.21   Z   M 737.96 582.24   Q 744.11 583.63 749.50 582.43   C 766.80 578.58 773.18 563.20 770.82 546.75   C 769.23 535.75 762.10 526.91 751.22 524.29   C 736.71 520.80 723.35 528.76 719.74 543.40   C 716.06 558.30 720.41 578.26 737.96 582.24   Z"
     id="path30" />
  <path
     fill="#e8e6e3"
     d="   M 913.50 520.96   L 913.50 509.50   Q 913.50 509.00 914.00 509.00   L 931.75 509.00   Q 932.00 509.00 932.00 509.25   L 932.00 597.25   A 0.25 0.25 0.0 0 1 931.75 597.50   L 914.00 597.50   Q 913.50 597.50 913.50 597.00   L 913.50 585.24   Q 913.50 584.33 912.92 585.02   C 899.20 601.43 874.62 603.22 858.13 590.39   C 844.41 579.72 839.63 561.79 841.79 545.15   C 844.77 522.35 862.69 506.46 885.97 507.74   C 896.31 508.31 906.32 513.00 912.94 521.15   Q 913.50 521.84 913.50 520.96   Z   M 887.3440 583.0645   A 29.90 26.97 88.9 0 0 913.7350 552.6522   A 29.90 26.97 88.9 0 0 886.1960 523.2755   A 29.90 26.97 88.9 0 0 859.8050 553.6878   A 29.90 26.97 88.9 0 0 887.3440 583.0645   Z"
     id="path31" />
  <rect
     fill="#e8e6e3"
     x="403.99"
     y="509.00"
     width="18.50"
     height="88.50"
     rx="0.52"
     id="rect31" />
  <path
     fill="#7f9a24"
     d="   M 234.68 580.65   Q 226.64 584.21 217.88 582.32   C 206.23 579.80 199.52 570.01 198.39 558.34   C 197.10 545.12 200.58 531.50 213.37 525.80   Q 221.38 522.23 230.15 524.17   C 241.77 526.74 249.16 536.19 250.49 547.80   C 252.07 561.53 247.75 574.86 234.68 580.65   Z"
     id="path32"
     style="fill:#7ba42c;fill-opacity:1" />
  <path
     fill="#7f9a24"
     d="   M 737.96 582.24   C 720.41 578.26 716.06 558.30 719.74 543.40   C 723.35 528.76 736.71 520.80 751.22 524.29   C 762.10 526.91 769.23 535.75 770.82 546.75   C 773.18 563.20 766.80 578.58 749.50 582.43   Q 744.11 583.63 737.96 582.24   Z"
     id="path33"
     style="fill:#7ba42c;fill-opacity:1" />
  <ellipse
     fill="#7f9a24"
     cx="0.00"
     cy="0.00"
     transform="translate(886.77,553.17) rotate(88.9)"
     rx="29.90"
     ry="26.97"
     id="ellipse33"
     style="fill:#7ba42c;fill-opacity:1" />
</svg>
